<?xml version="1.0" encoding="utf-8"?>
<!-- Svg Vector Icons : http://www.onlinewebfonts.com/icon -->
<!DOCTYPE svg PUBLIC "-//W3C//DTD SVG 1.1//EN" "http://www.w3.org/Graphics/SVG/1.1/DTD/svg11.dtd">
<svg version="1.1" xmlns="http://www.w3.org/2000/svg" xmlns:xlink="http://www.w3.org/1999/xlink" x="0px" y="0px" viewBox="0 0 1000 1000" enable-background="new 0 0 1000 1000" xml:space="preserve">
<metadata> Svg Vector Icons : http://www.onlinewebfonts.com/icon </metadata>
<g><path d="M989.6,669.2c-3.8-19.5-37.6-191.1-45.9-216.2c-20.1-60.3-68.3-128.9-128.9-183.5c-63.1-56.8-128.4-89.4-179.3-89.4H140.6c-25.6,0-46.5,20.9-46.5,46.5v73.1H59.8c-12.6,0-22.8,10.2-22.8,22.8c0,12.6,10.2,22.8,22.8,22.8h34.3v54.3H32.8c-12.6,0-22.8,10.2-22.8,22.8c0,12.6,10.2,22.8,22.8,22.8h61.3v228.6c0,25.6,20.9,46.5,46.5,46.5h56.7c8.5,56.4,57.2,99.7,115.9,99.7c58.7,0,107.4-43.4,115.9-99.7h208.7c8.5,56.4,57.2,99.7,115.9,99.7c58.7,0,107.4-43.4,115.9-99.7h73.8c25.6,0,46.5-20.9,46.5-46.5C990,672.2,989.9,670.7,989.6,669.2z M897.9,460.1l-234.5,0V229.7C746.5,252,861.6,362.5,897.9,460.1z M313.2,774.3c-39.6,0-71.7-32.2-71.7-71.7s32.2-71.7,71.7-71.7c39.6,0,71.7,32.2,71.7,71.7C384.9,742.2,352.8,774.3,313.2,774.3z M753.8,774.3c-39.6,0-71.7-32.2-71.7-71.7c0-39.6,32.2-71.7,71.7-71.7c39.5,0,71.7,32.2,71.7,71.7S793.3,774.3,753.8,774.3z M942.4,674.6c-19,0-74.8,0-74.8,0c-12.6-51.2-58.8-89.2-113.8-89.2c-55,0-101.2,38.1-113.8,89.2H427c-12.6-51.2-58.8-89.2-113.8-89.2c-55,0-101.2,38.1-113.8,89.2h-58.8c-0.6,0-1-0.5-1-1V445h278.8c12.6,0,22.8-10.2,22.8-22.8c0-12.6-10.2-22.8-22.8-22.8H139.6v-54.3h128.3c12.6,0,22.8-10.2,22.8-22.8s-10.2-22.8-22.8-22.8H139.6v-73.1c0-0.6,0.5-1,1-1h477.3v257.2c0,12.6,10.2,22.8,22.8,22.8l269,0c9.7,44.2,23,115.2,34.3,167.6C944.2,674.3,943.5,674.6,942.4,674.6z"/><g></g><g></g><g></g><g></g><g></g><g></g><g></g><g></g><g></g><g></g><g></g><g></g><g></g><g></g><g></g></g>
</svg>