<?xml version="1.0" encoding="utf-8"?>
<!-- Svg Vector Icons : http://www.onlinewebfonts.com/icon -->
<!DOCTYPE svg PUBLIC "-//W3C//DTD SVG 1.1//EN" "http://www.w3.org/Graphics/SVG/1.1/DTD/svg11.dtd">
<svg version="1.1" xmlns="http://www.w3.org/2000/svg" xmlns:xlink="http://www.w3.org/1999/xlink" x="0px" y="0px" viewBox="0 0 1000 1000" enable-background="new 0 0 1000 1000" xml:space="preserve">
<metadata> Svg Vector Icons : http://www.onlinewebfonts.com/icon </metadata>
<g><g transform="translate(0.000000,511.000000) scale(0.100000,-0.100000)"><path d="M379.8,3510.2c-65.5-33.7-142.8-89.3-170.6-125C94.1,3232.4,100,3407,100,601.9c0-2450,2-2578.9,37.7-2654.3c47.6-107.1,148.8-204.3,269.8-259.9l99.2-47.6h4485.4c4971.4,0,4580.6-9.9,4745.2,130.9c43.6,37.7,99.2,105.1,121,152.7c41.7,85.3,41.7,89.3,41.7,2682.1c0,2592.8,0,2596.8-41.7,2682.1c-21.8,47.6-77.4,115.1-121,152.7c-164.7,140.8,226.2,130.9-4747.2,130.9H502.8L379.8,3510.2z M9485.4,3196.7l57.5-57.5V607.9v-2529.3l-47.6-55.6l-47.6-55.5l-4402-5.9c-2420.2-2-4419.9,0-4445.7,5.9c-23.8,5.9-61.5,27.8-83.3,49.6C477-1943.3,477-1905.6,477,601.9c0,2692-4,2578.9,89.3,2628.5c27.8,15.9,1295.4,21.8,4449.6,23.8h4412L9485.4,3196.7z"/><path d="M939.2,2849.6l-55.5-47.6V607.9v-2192.1l45.6-45.6l45.6-45.6l4017.2-5.9l4017.2-4l59.5,57.5c61.5,61.5,71.4,117,35.7,184.5c-53.6,99.2,127,95.2-4005.3,95.2H1250.6v1964v1964H5000h3749.4l4-1718l5.9-1718l55.5-47.6c83.3-71.4,218.2-57.5,285.7,29.8c19.8,23.8,23.8,452.3,25.8,1850.9V2794l-61.5,51.6l-61.5,51.6H5000H994.7L939.2,2849.6z"/><path d="M3295.9-2907.4c-57.5-47.6-61.5-59.5-61.5-196.4c0-136.9,4-148.8,61.5-196.4l61.5-51.6h1632.7c1226,0,1648.5,6,1686.2,23.8c29.8,13.9,65.5,47.6,81.3,77.4c35.7,71.4,35.7,222.2-2,293.6c-63.5,123-242,127-317.4,7.9l-39.7-63.5l-1400.6-2H3595.5l-11.9,49.6c-13.9,53.6-103.2,109.1-178.5,109.1C3379.3-2855.8,3329.7-2879.6,3295.9-2907.4z"/></g></g>
</svg>