<?xml version="1.0" standalone="no"?>
<!DOCTYPE svg PUBLIC "-//W3C//DTD SVG 20010904//EN"
 "http://www.w3.org/TR/2001/REC-SVG-20010904/DTD/svg10.dtd">
<svg version="1.0" xmlns="http://www.w3.org/2000/svg"
 width="200.000000pt" height="200.000000pt" viewBox="0 0 200.000000 200.000000"
 preserveAspectRatio="xMidYMid meet">
<metadata>
Created by potrace 1.14, written by Peter Selinger 2001-2017
</metadata>
<g transform="translate(0.000000,200.000000) scale(0.100000,-0.100000)"
fill="#000000" stroke="none">
<path d="M148 1656 c-57 -20 -85 -42 -116 -88 l-27 -42 0 -527 0 -527 30 -44
c17 -23 51 -54 75 -68 l45 -25 845 0 845 0 45 25 c24 14 58 45 75 68 l30 44 0
528 0 528 -30 44 c-17 23 -51 54 -75 68 l-45 25 -830 2 c-675 2 -837 0 -867
-11z m1022 -212 l0 -136 -56 56 c-64 64 -165 118 -222 120 -69 1 -127 -57
-126 -126 2 -57 56 -158 120 -222 l56 -56 -428 2 -429 3 -3 185 c-3 207 3 246
49 284 l31 26 504 0 504 0 0 -136z m699 110 c46 -38 52 -77 49 -284 l-3 -185
-219 -3 -219 -2 56 59 c64 67 117 167 117 222 0 81 -83 143 -159 118 -72 -23
-135 -62 -188 -114 l-53 -54 0 135 0 134 294 0 294 0 31 -26z m-908 -180 c94
-47 177 -153 195 -248 l7 -39 -39 7 c-95 18 -201 101 -248 195 -29 56 -32 81
-14 99 18 18 43 15 99 -14z m602 5 c33 -53 -107 -227 -216 -267 -32 -12 -66
-22 -76 -22 -17 0 -18 4 -10 41 5 22 19 59 30 81 63 123 234 228 272 167z
m-551 -472 c-91 -91 -106 -119 -80 -145 23 -23 44 -11 140 85 l98 98 0 -263 0
-262 -504 0 c-501 0 -503 0 -531 22 -50 39 -55 66 -55 323 l0 235 512 0 513 0
-93 -93z m908 -142 c0 -257 -5 -284 -55 -323 -27 -21 -35 -22 -321 -22 l-294
0 0 262 0 263 98 -98 c96 -96 117 -108 140 -85 23 23 11 44 -85 140 l-98 98
308 0 307 0 0 -235z"/>
<path d="M262 818 c-7 -7 -12 -19 -12 -28 0 -36 20 -40 206 -40 153 0 185 3
198 16 19 18 19 20 6 45 -10 18 -23 19 -198 19 -133 0 -192 -4 -200 -12z"/>
<path d="M268 659 c-22 -12 -23 -42 -2 -63 13 -14 56 -16 318 -16 281 0 304 1
319 18 22 24 21 35 -1 55 -16 15 -53 17 -318 17 -184 0 -306 -5 -316 -11z"/>
</g>
</svg>
