<?xml version="1.0" encoding="utf-8"?>
<!-- Svg Vector Icons : http://www.onlinewebfonts.com/icon -->
<!DOCTYPE svg PUBLIC "-//W3C//DTD SVG 1.1//EN" "http://www.w3.org/Graphics/SVG/1.1/DTD/svg11.dtd">
<svg version="1.1" xmlns="http://www.w3.org/2000/svg" xmlns:xlink="http://www.w3.org/1999/xlink" x="0px" y="0px" viewBox="0 0 1000 1000" enable-background="new 0 0 1000 1000" xml:space="preserve">
<metadata> Svg Vector Icons : http://www.onlinewebfonts.com/icon </metadata>
<g><path d="M692.7,349.2c9.2,9.5,9.2,24.9,0,34.5L425.8,660.4L307.4,537.6c-9.2-9.5-9.2-25,0-34.5c9.2-9.5,24-9.5,33.2,0l85.2,88.4l233.7-242.3C668.6,339.7,683.5,339.7,692.7,349.2L692.7,349.2z M500.1,940.1c-45.3-15.4-323.6-122.4-323.6-428.8V181c137.7-3.4,271.8-34.9,323.5-92.7c51.6,57.8,185.8,89.3,323.5,92.7v330.4C823.5,820.7,547.3,924.6,500.1,940.1L500.1,940.1z M871.7,156.9c0-13.5-10.5-24.4-23.5-24.4c-197.5,0-323.5-58.2-323.5-98.2c0-13.5-10.5-24.4-23.5-24.4h-2.5c-13,0-23.5,10.9-23.5,24.4c0,40-126,98.2-323.5,98.2c-13,0-23.5,10.9-23.5,24.4c0,2.7,0.5,5.2,1.3,7.6v346.8c0,368.6,360.5,476.7,364.2,477.7c2.1,0.6,4.2,0.9,6.3,0.9c2.1,0,4.2-0.3,6.3-0.9c3.7-1,364.2-109.2,364.2-477.7V164.4C871.2,162.1,871.7,159.6,871.7,156.9L871.7,156.9z"/></g>
</svg>