<?xml version="1.0" encoding="utf-8"?>
<!-- Svg Vector Icons : http://www.onlinewebfonts.com/icon -->
<!DOCTYPE svg PUBLIC "-//W3C//DTD SVG 1.1//EN" "http://www.w3.org/Graphics/SVG/1.1/DTD/svg11.dtd">
<svg version="1.1" xmlns="http://www.w3.org/2000/svg" xmlns:xlink="http://www.w3.org/1999/xlink" x="0px" y="0px" viewBox="0 0 1000 1000" enable-background="new 0 0 1000 1000" xml:space="preserve">
<metadata> Svg Vector Icons : http://www.onlinewebfonts.com/icon </metadata>
<g><g transform="translate(0.000000,511.000000) scale(0.100000,-0.100000)"><path d="M2900.5,4989.4c-303.7-45.4-585.8-265.4-729.3-569.1l-76.5-160.2V111.3v-4148.7l76.5-160.2c148.2-313.2,423.2-523.7,750.8-569.1c208-31.1,3986.1-31.1,4170.2,0c320.4,52.6,590.6,260.6,736.5,569.1l76.5,160.2V111.3v4148.7l-76.5,160.2c-145.8,308.5-416,516.5-736.5,569.1C6922.5,5018.1,3091.8,5015.7,2900.5,4989.4z M7391.2,541.7v-3347.7H5000H2608.8V541.7v3347.7H5000h2391.2V541.7z M5241.5-3255.5c186.5-98,267.8-224.8,279.8-435.2c9.6-143.5,2.4-179.3-57.4-284.6c-110-205.6-332.4-315.6-557.2-277.4c-145.9,23.9-294.1,136.3-370.6,277.4c-59.8,105.2-67,141.1-57.4,284.6c7.2,136.3,21.5,184.1,78.9,267.8c95.6,131.5,286.9,234.3,442.4,234.3C5078.9-3188.5,5153-3210,5241.5-3255.5z"/></g></g>
</svg>