<svg xmlns="http://www.w3.org/2000/svg" viewBox="0 0 50 56.7"><path fill="#656564" d="M46.7 21.5c0-.3-.2-.5-.5-.5H35.5c3.4-.7 6.9-1.3 9.7-2.6 2.4-1.2 4.2-3.1 4.7-5.5.4-1.7.1-3.3-.8-4.5-1.5-2-3.8-2-5.4-1.2-1.6.8-2.3 2.4-1.9 4 .1.4.5.6.8.5.4-.1.6-.5.5-.8-.3-1.2.4-2 1.2-2.4 1-.6 2.6-.5 3.6.8.6.8.8 2 .6 3.3-.4 1.9-1.9 3.5-4 4.5-4.4 2.1-11.1 2.8-16 3.1 2.7-.9 5.5-2.2 7.1-4 1.5-1.8 2.4-3.8 2.5-5.8.1-2-.6-3.7-2-4.8-2.9-2.4-7.3-1.6-10.4 2.2-1 1.2-1.7 3.1-2.3 5-.3-2.9-1-5.9-2.3-7.8-3.3-4.8-8.3-6.3-12-3.7-3.7 2.5-4 7.8-.7 12.5 2 2.8 6.5 4.9 10 6.4.5.2.3.9-.2.9H.5c-.3 0-.5.2-.5.5v10h2.1v24.7c0 .3.2.5.5.5h42.3c.3 0 .5-.2.5-.5V31.5h1.4v-10zm-20-12.9c1.7-2 3.8-3 5.6-3 1 0 2 .4 2.9 1 1 .9 1.6 2.2 1.5 3.7-.1 1.6-.8 3.4-2.2 4.9-1.8 2.1-6.3 3.7-10.2 4.6l-.6-.6c.3-3.8 1.3-8.6 3-10.6zM9.6 12.9c-2.9-4-2.7-8.5.3-10.6.9-.6 2-1 3.1-1 2.4 0 5 1.5 7 4.3 1.9 2.7 2.4 8.5 2.4 13.4 0 .3-.1.6-.1.9-4.9-1.4-10.7-4-12.7-7zM1.4 30.1v-7.2c0-.3.2-.5.5-.5H22c.3 0 .5.2.5.5v6.8c0 .3-.2.5-.5.5H1.4zM4 31.5h18c.3 0 .5.2.5.5v22.9c0 .3-.2.5-.5.5H4c-.3 0-.5-.2-.5-.5v-23c0-.2.2-.4.5-.4zm39.5 23.8H24.3c-.3 0-.5-.2-.5-.5V31.9c0-.3.2-.5.5-.5h19.2c.3 0 .5.2.5.5v22.9c-.1.3-.3.5-.5.5zm1.8-25.2h-21c-.3 0-.5-.2-.5-.5v-6.8c0-.3.2-.5.5-.5h20.6c.3 0 .5.2.5.5v7.3z"/></svg>