<?xml version="1.0" encoding="utf-8"?>
<!-- Svg Vector Icons : http://www.onlinewebfonts.com/icon -->
<!DOCTYPE svg PUBLIC "-//W3C//DTD SVG 1.1//EN" "http://www.w3.org/Graphics/SVG/1.1/DTD/svg11.dtd">
<svg version="1.1" xmlns="http://www.w3.org/2000/svg" xmlns:xlink="http://www.w3.org/1999/xlink" x="0px" y="0px" viewBox="0 0 1000 1000" enable-background="new 0 0 1000 1000" xml:space="preserve">
<metadata> Svg Vector Icons : http://www.onlinewebfonts.com/icon </metadata>
<g><path d="M988.5,433.6c-4.4-12.9-17.3-21.7-31.9-21.7H792.8c7.1-13.1,14.8-26.3,23.2-40.3c23.9-41.3,43.7-87.1,43.7-132.9V70.3c0-16.5-14.6-28-32.6-28H573.2v47.5h-0.3v8.4h232v140.5c0,31.3-15.3,70.6-35.4,105.7c-13.8,22.7-27.3,44.2-36.8,67.4H630.3L529.4,124.3c-2.2-6.3-6.5-11.6-12-15.4c0,0-7.8-6.3-18.5-6.3c-10.7,0-21,6.3-21,6.3c-5.6,3.8-9.9,9.2-12.1,15.6l-98,287.3h-100c-9.2-23.2-22.6-44.7-35.4-67.4c-21.2-35.1-36.3-74.4-36.3-105.7V98.3H434v-56H174c-17.7,0-32.6,11.5-32.6,28v168.5c0,45.7,19.2,91.6,43.5,132.9c8.4,14,16.4,27.2,23,40.3H43.4c-14.6,0-27.4,8.7-31.8,21.6c-4.4,12.9,0.7,26.9,12.6,34.7L276.3,633l-93.6,284.6c-4.1,12.6,0.7,26.2,12.2,34c11.4,7.8,26.9,8.1,38.6,0.6l266.2-168.6L758.2,952c5.8,3.7,12.5,5.6,19.2,5.6c7,0,14-2.1,19.9-6.1c11.6-8,16.3-21.9,11.8-34.6l-99-276.9l265.6-171.9C987.7,460.5,992.8,446.5,988.5,433.6L988.5,433.6z M664.2,607.5c-13.1,8.5-18.7,24-13.6,38.1L731.9,873L520.8,735.5c-12.3-8.1-28.8-8.1-41.2-0.2l-224.2,142l79-240.3c4.6-13.9-1-28.9-13.8-37.2L119.2,468h264.1c15.8,0,29.8-9.5,34.5-23.4L498,209.4l82.6,235.4c4.8,13.8,18.7,23.2,34.4,23.2h264.8L664.2,607.5L664.2,607.5z"/></g>
</svg>